<?xml version="1.0" encoding="UTF-8"?>
<svg version="1.1" viewBox="0 0 2048 913" width="1280" height="1280" xmlns="http://www.w3.org/2000/svg">
<path transform="translate(0)" d="m0 0h2048v913h-2048z" fill="#FDF1F1"/>
<path transform="translate(1015,269)" d="m0 0h16l17 4 16 8 11 8 8 9 8 14 4 11 3 15v16l-4 15-8 16-8 10-9 9-12 7-17 6-5 1h-24l-17-5-15-8-12-11-9-12-6-13-4-16v-15l3-16 5-13 7-11 9-10 13-9 13-6z" fill="#F6C764"/>
<path transform="translate(1032,167)" d="m0 0 20 2 18 4 20 7 19 9 14 9 16 12 16 16 9 11 8 11 11 20 9 24 5 21 1 6 1 16v22l-2 19-7 25-9 21-9 16-12 17-15 16-7 7-16 12-14 8-16 8-24 8-27 5-17 1h-13l-30-5-12-3-16-6-20-10-20-14-13-12-10-10-11-14-10-15-11-23-6-18-4-20-2-14v-9l9-4 4 1 2 4 6 35 7 21 8 16 7 12 9 12 12 14 7 7 15 11 17 10 18 8 20 6 9 2 14 1h29l19-3 15-4 15-6 21-11 16-12 10-9 11-11 10-13 9-16 7-15 5-16 4-15 2-17v-20l-3-23-4-16-6-16-8-16-7-12-13-16-10-10-14-11-15-10-23-11-20-6-30-5-5-5 1-7 3-3z" fill="#F5C664"/>
<path transform="translate(1029,197)" d="m0 0h12l24 5 15 5 17 8 18 12 13 12 10 11 11 15 10 19 7 19 4 17 1 8v31l-4 24-6 16-8 16-6 11-10 13-8 9h-2v2l-8 7-15 11-13 8-14 6-25 7-11 2h-34l-18-3-21-7-23-11-13-10-10-9-6-7 1-6 4-3h6l14 11 11 8 19 10 17 6 19 4h30l20-4 21-8 15-8 12-8 21-21 9-13 10-21 5-16 3-17v-28l-2-15-6-20-12-23-10-13-12-13-15-11-16-9-15-6-13-4-22-4-5-4v-8z" fill="#F5C664"/>
<path transform="translate(1262,591)" d="m0 0h22l2 4v4h16l11 4 4 1 8-7 7-3h17l10 4 7 7 6 13 3 15v33l-1 11-2 5-2 1-23-1-6-2v-10l2-19v-23l-3-9-5 1-3 4-2 7v35l-1 11-2 5-2 1-21-1-7-2-1-1 1-21v-27l-2-7-4-1-4 3-1 4-1 48-2 4-2 1h-30l-1-1v-9l4-50-8-1-2-8-2-14v-7l1-1z" fill="#F6C764"/>
<path transform="translate(761,594)" d="m0 0h45l1 2-1 57 9 3-1 18-1 8-1 1-34 1-3-4-10 5h-11l-11-4-8-6-6-10-4-11-1-5v-18l4-12 6-9 7-7 16-8z" fill="#F6C764"/>
<path transform="translate(924,594)" d="m0 0h46l1 1v59l7 1 1 1v10l-2 16-1 1-21 1h-13l-1-4-5 2-7 3h-11l-11-4-9-8-7-14-3-13v-12l4-14 6-9 4-5 11-7z" fill="#F5C664"/>
<path transform="translate(1420,594)" d="m0 0h45v60l7 1 1 1v13l-1 11-2 3-20 1h-13l-2-3-5 1-7 3h-9l-10-3-9-6-7-10-5-15-1-5v-11l3-12 7-12 8-8 16-8z" fill="#F6C764"/>
<path transform="translate(1089,594)" d="m0 0h26l12 4 8 6 5 8 3 9 1 6v29l-3 12-6 8-5 4-7 3-12 2h-18l-14-3-8-4-8-9-3-9-2-13v-17l3-14 5-10 9-7 10-4z" fill="#F6C764"/>
<path transform="translate(1154,591)" d="m0 0 34 2 18 2 14 4 8 6 5 7 3 12v7l-4 11-8 7 2 5 9 13 1 6-15 8-6 2h-6l-4-5-7-15-1 17-3 2-6 1h-24l-3-2v-17l1-42-7-1-2-4-2-13v-12z" fill="#F6C764"/>
<path transform="translate(573,593)" d="m0 0h32l23 1 13 3 9 6 5 8 3 13v7l-3 10-6 8-7 6-10 4-16 4-1 22-3 2-14 1h-12l-5-2v-15l3-43v-5l-7-1-2-4-3-20z" fill="#F6C764"/>
<path transform="translate(1030,226)" d="m0 0h8l20 5 15 6 13 7 12 9 13 12 12 17 8 15 5 15 3 14 2 22-3 20-5 17-10 21-11 14-11 12-10 8-17 10-9 4-15 5-20 3h-7l-5-4v-7l4-4 10-2 17-3 15-5 17-9 5-5 10-8 8-9 11-18 4-11 4-14 2-12v-11l-3-20-5-16-9-17-11-13-8-8-10-7-14-8-13-5-23-5-4-4v-6z" fill="#F5C664"/>
<path transform="translate(1014,589)" d="m0 0h23l11 4 3 3-1 10-4 12-3 2-9-2h-8l-3 4-2 9h17l-1 11-2 9-2 2h-14v30l-2 2h-17l-12-2-1-2-1-32v-18l2-15 4-11 6-9 8-5z" fill="#F6C764"/>
<path transform="translate(1029,197)" d="m0 0h12l24 5 15 5 17 8 18 12 13 12 10 11 11 15 10 19 7 19 4 17 1 8v31l-2 13-2 2-8-9-5-4-1-3v-28l-2-15-6-20-12-23-10-13-12-13-15-11-16-9-15-6-13-4-22-4-5-4v-8z" fill="#F6C764"/>
<path transform="translate(838,588)" d="m0 0h13l3 2v17h11l2 2v17l-1 3-12 1v18l3 9 2 2 16 1 5 2 1 3v16l-3 3h-31l-9-2-7-4-4-8-3-12-3-25v-12l1-2 2-27 2-3z" fill="#DBB469"/>
<path transform="translate(669,591)" d="m0 0h34l2 2v15l-1 29v19l12 2v25l-2 2h-43l-1-1v-15l5-49-10-1-2-1 1-9 4-16z" fill="#F6C764"/>
<path transform="translate(1168,372)" d="m0 0h1l1 5 5 3h4l-2 11-6 17-11 21-7 10-9 11-16 16-16 12-16 9-17 8-16 5-15 3-9 1h-29l-14-1-2-4-6-7-5-5 2-1 14 3 8 1h34l19-4 20-6 16-8 15-10 10-8 4-4h2v-2l5-5 10-11 8-13 9-17 6-15z" fill="#FCF0F0"/>
<path transform="translate(1140,348)" d="m0 0 2 3 1-1 7 1 2 3 2-3v7l-4 21-7 19-10 19-9 11-20 20-18 11-15 7-17 6-17 3h-30v-1l7-1-6-7 1-4 3-3 5-1v-6h1l2 7 3 2 16-1 14-3 18-6 17-10 12-9 8-8 11-14 6-10 7-15 5-17z" fill="#FCF0F0"/>
<path transform="translate(647,771)" d="m0 0h12l7 3 8 7 4 7 1 3v9l-3 7-6 8-8 5-4 1h-12l-10-6-6-7-2-5v-13l3-8 5-6 7-4z" fill="#FDF1F1"/>
<path transform="translate(921,435)" d="m0 0h6l14 11 11 8 19 10 17 6 19 4 22 1v1l-9 1 10 13v1h-23l-18-3-21-7-23-11-13-10-10-9-6-7 1-6z" fill="#F5C664"/>
<path transform="translate(779,684)" d="m0 0h9l5 23v7l-2 2h-7l6 16 2 5v3l-3-1-4-6-9 1-3 6h-2l1-6 7-18-7-1-23-8h-6l9 12 10 13 2 3v3l-3 3h-5l-7-8-2-7-5 3 2 4 3 4v3l-5-2-4-7h-3l-1 9-3-1v-27l-7-8 2-4 9-7 10 2 27 10 11 4-4-18z" fill="#E8DBDD"/>
<path transform="translate(1235,288)" d="m0 0h7l7 4 6 7 2 6v7l-3 6-8 9-10 6-10 2-8-3-7-6-4-10 2-9 6-8 9-7z" fill="#FEF2F2"/>
<path transform="translate(1233,279)" d="m0 0h14l9 5 7 9 2 5v11l-6 12-8 9-14 9-10 4h-10l-9-5-8-9-1 6h-1l-1-21 4-10 9-11 10-8 8-4zm2 9-11 4-10 8-6 9-1 7 4 10 7 6 8 3 10-2 11-7 8-9 2-5v-7l-3-8-9-8-3-1z" fill="#E8DBDD"/>
<path transform="translate(961,509)" d="m0 0 6 1 9 3 5 1v3l9 11 9 10-1 4-5 4h-3l-6-7v-2h-2l-5-7-5 2-11 10-10 8-7 5 4 6 1 3h2l7 9-2 4-4 3-4-1-9-10-11-14-10-12 1-4 4-4 4 1 10 12 4-1 15-13 12-11h2l-4-6-6-7z" fill="#E8DBDD"/>
<path transform="translate(695,714)" d="m0 0 2 1 5 11 4 10v4l-3-1-2-5h-11l-3 6-3 7-1 7 10-3 23-10 3-1h9l6 3 3 6-1 9-6 8-8 8-14 9-8 4-3-1v-2h-2l1-3 16-8 9-7 4-6v-8l-4-1-19 8-16 6-7-1-6-7-1-4 3-9 4-6 4-2h3l3-9 5-12z" fill="#E8DBDD"/>
<path transform="translate(823,645)" d="m0 0h1v5h2v2h2l2 7v5l5 8v3l3-1 1-4-1-10 13-13 3 1 3 9 2 2 16 1 5 2 1 3v16l-3 3h-31l-9-2-7-4-4-8-3-12z" fill="#F6C764"/>
<path transform="translate(838,588)" d="m0 0h13l3 2v17h11l2 2v17l-2 3-8-1-3-4-16-6-6-2-5 1-4 2v-16l1-11 2-3z" fill="#F6C764"/>
<path transform="translate(1100,615)" d="m0 0 8 1 5 5 2 8v22l-3 7-4 4h-12l-5-4-3-9v-19l3-10 5-4z" fill="#FDF1F1"/>
<path transform="translate(899,559)" d="m0 0 4 1 2 5-9 4-10 6-9 9-1 4 1 3 7-1 25-10 10-2 7 3 4 6-1 6h38v1l-43 1-5 1-1-5-5-1-26 11-8 2-8-1-6-7v-7l6-9 7-7 15-10z" fill="#E8DBDD"/>
<path transform="translate(1076,448)" d="m0 0 6 2 4 5v2l2 1-17 8-17 6-17 3h-30v-1l7-1-6-7 1-4 3-3 5-1v-6h1l2 7 3 2 16-1 14-3 18-6z" fill="#E8DBDD"/>
<path transform="translate(1304,223)" d="m0 0 4 1-20 10-7 8-4 7-2 14 3 7 8 6 7 3 8-1 10-6 7-4 6-6v-7l-4-6v-2l-6 2-11 8-3-1 3-5 9-7 6-7 4 1 11 13 1 4-14 14-4 5-13 9-10 4h-9l-9-5-8-9-2-5v-9l4-10 6-8 4-4 7-4 10-6z" fill="#E8D9D4"/>
<path transform="translate(1140,348)" d="m0 0 2 3 1-1 7 1 2 3 2-3v7l-4 21-7 19-4 8-1-3-7 1-6 4-2-4 9-19 5-17z" fill="#FCF0F0"/>
<path transform="translate(1117,374)" d="m0 0h3l-2 10-9 16-10 13-10 9-4 2-2-2v-13l3-8 7-10 11-10z" fill="#E8DBDD"/>
<path transform="translate(785,651)" d="m0 0 5 2 11 14 7 9 2 5h2v2l-34 1-2-7-2-10 1-7z" fill="#DBB469"/>
<path transform="translate(1059,439)" d="m0 0 4 4 6 7 2 2-21 7-20 3h-7l-5-4v-7l4-4 10-2 17-3z" fill="#F6C764"/>
<path transform="translate(983,486)" d="m0 0 24 4 26 1 3 6 3 3 5 1-1 2-4 1h-29l-14-1-2-4-6-7-5-5z" fill="#FCF0F1"/>
<path transform="translate(1366,173)" d="m0 0h8l9 4 7 7 3 9-2 11-6 9-9 9-10 6-12 5h-7l-7-3v-2l-4-1-6-9-1-3v-11l8-13 4-5 13-9zm-2 2-12 5-13 11-3 10v10l6 10 9 6 2 1h10l10-6 10-9 7-14v-8l-4-8-5-5-6-3z" fill="#E9D8D0"/>
<path transform="translate(1428,622)" d="m0 0h6l1 1-1 13-2 15-3 5-7-1-5-6-1-10 4-11 5-5z" fill="#FCEFF0"/>
<path transform="translate(934,622)" d="m0 0h5l1 1v11l-3 20-2 2-7-1-5-5-1-2v-11l4-10 5-4z" fill="#FCF0F0"/>
<path transform="translate(769,622)" d="m0 0h6l1 1-1 15-3 16-2 2-6-1-5-4-2-5 1-11 4-8 4-4z" fill="#FCF0F0"/>
<path transform="translate(1087,422)" d="m0 0 2 1-1 5 2 3 7 1-2 5-14 9-9 5-4-1-6-7-2-4 19-10 5-3z" fill="#F5C664"/>
<path transform="translate(830,624)" d="m0 0 12 4 11 5v8h-2l-2 4-10 7h-3l-3-8-3-13z" fill="#F6C764"/>
<path transform="translate(854,629)" d="m0 0h13l17 6-1 3h-2v2l-4 3h-6l-2-1h-7l-4 3h-4l-1 3v-18z" fill="#E8DBDD"/>
<path transform="translate(1145,399)" d="m0 0 5 3 2 2v5l-9 11-7 7-5 3-6 1 2-4 3-4 2-6 8-15z" fill="#DDB569"/>
<path transform="translate(1095,436)" d="m0 0h3v2l13 2-6 7-15 10h-4l-4-6-5-2 4-4z" fill="#FCF0F0"/>
<path transform="translate(1318,237)" d="m0 0 4 1 11 13 1 4-15 15-2-1 7-7v-7l-4-6v-2l-6 2-11 8-3-1 3-5 9-7z" fill="#E9D8CC"/>
<path transform="translate(1136,714)" d="m0 0h9l5 4 1 7-5 4 1 4 3 4-1 3-6-5-3-5-2-1v10h-3l-1-1v-21z" fill="#F6C764"/>
<path transform="translate(736,713)" d="m0 0 8 2 3 3 1 6-3 4-3 1 2 4 3 4v3l-5-2-4-7h-3l-1 9-3-1v-23z" fill="#F6C764"/>
<path transform="translate(1012,714)" d="m0 0h8l5 4 1 7-5 4h-2l3 5 3 3v3l-4-2-4-5-4-4v10l-3 1-1-3v-20z" fill="#F6C764"/>
<path transform="translate(845,714)" d="m0 0h8l5 3 1 2v7l-4 3h-2l6 10-2 1-5-5-3-4-3-1v10l-3-1v-23z" fill="#F6C764"/>
<path transform="translate(647,771)" d="m0 0h12l7 3 8 7 4 7 1 3v9l-3 7-6 8-8 5-4 1h-12l-10-6-6-7-2-5v-13l3-8 5-6 7-4zm0 2-7 3-5 4-5 10v13l5 9 8 6 7 2 9-1 8-4 7-7 3-7v-10l-5-10-7-6-6-2z" fill="#E8DBDD"/>
<path transform="translate(652,714)" d="m0 0h9l5 4v8l-5 4h-8v10l-3-1v-23z" fill="#F6C764"/>
<path transform="translate(1115,384)" d="m0 0 1 4-9 15-9 11-3 3-3-1 2-10 6-9 4-5z" fill="#FCF0F0"/>
<path transform="translate(1366,173)" d="m0 0h8l9 4 7 7 3 9-2 11-6 9-9 9-10 6-10 3v-2l11-4 11-8 6-7 5-11v-8l-4-8-5-5-5-2h-11l-12 5-12 10-6 8-1-2 8-11 13-9z" fill="#E2B968"/>
<path transform="translate(616,616)" d="m0 0 7 1 4 4 1 8-3 7-5 3-5-1v-10z" fill="#FBEFEF"/>
<path transform="translate(1342,714)" d="m0 0 3 1 9 21v4l-3-1-4-6-9 1-3 6h-2l1-6z" fill="#F6C764"/>
<path transform="translate(781,714)" d="m0 0 3 3 8 20v3l-3-1-4-6-9 1-3 6h-2l1-6 7-18z" fill="#F5C664"/>
<path transform="translate(983,486)" d="m0 0 16 3 8 7 4 6 3 2-18-1-2-4-6-7-5-5z" fill="#E8DBDD"/>
<path transform="translate(695,714)" d="m0 0 2 1 5 11 4 10v4l-3-1-2-5h-11l-3 6h-2l1-6 8-19z" fill="#F3C564"/>
<path transform="translate(1137,389)" d="m0 0 4 1 1 4 2 1-5 11-1-3-7 1-6 4-2-4 7-14 1 2z" fill="#E8DBDD"/>
<path transform="translate(1099,714)" d="m0 0 2 2 8 20v4l-3-1-2-5h-10l-4 6h-2l1-5 8-18z" fill="#F6C764"/>
<path transform="translate(1154,360)" d="m0 0 3 2v2l4 2 7 8-1 9-1 2-4-2-10-10v-11z" fill="#DCB469"/>
<path transform="translate(884,714)" d="m0 0h14l1 3-11 1-1 1v7l10-1 1 3-11 2v7h11l1 2-2 1h-11l-3-2v-23z" fill="#F5C664"/>
<path transform="translate(924,594)" d="m0 0h5l-4 8-8 8-9 7-11 7-2-1 5-7 9-6 9-8 3-7z" fill="#DBB469"/>
<path transform="translate(1140,348)" d="m0 0 2 3 1-1 7 1 2 3 2-3v7l-2 11-5-1-6-9-2 1z" fill="#E8DBDD"/>
<path transform="translate(968,714)" d="m0 0h14v3l-10 1-1 1v7h11v2l-10 1-1 1v7h11l1 2-2 1h-11l-3-2v-23z" fill="#F5C664"/>
<path transform="translate(1118,428)" d="m0 0h2l1 3-9 9h-11l-3-2v-2l-2-1 7-5z" fill="#E8DBDD"/>
<path transform="translate(931,714)" d="m0 0 7 1 3 3-1 2-5-3-6 2v4l11 4 3 4-1 6-6 4-7-1-5-4v-2l4 1 4 2 6-1v-5l-10-4-3-3v-6l3-3z" fill="#F6C764"/>
<path transform="translate(1207,714)" d="m0 0 7 1 3 3-1 2-5-3-6 2v4l11 4 3 4-1 6-3 3-8 1-6-4-1-3 4 1 4 2h5l1-1v-5l-11-5-2-2v-6z" fill="#F6C764"/>
<path transform="translate(998,503)" d="m0 0h12l5 4 5 9 1 3h-7l-10-9-5-5z" fill="#DCB469"/>
<path transform="translate(1383,714)" d="m0 0 7 1 3 2-1 3-5-3-5 1-1 5 11 4 3 3v6l-5 4-7 1-6-4-1-3 4 1 4 2h5l2-2v-4l-12-5-2-2v-6l3-3z" fill="#F6C764"/>
<path transform="translate(1029,475)" d="m0 0 3 1 7 10 1 4h-11l-10-13v-1z" fill="#DBB46A"/>
<path transform="translate(1168,372)" d="m0 0h1l1 5 5 3h4l-2 11-2 4h-3l-3-1-4-5z" fill="#E8DBDD"/>
<path transform="translate(1056,424)" d="m0 0 5 1 6 7v2l3 1-11 5-2-1-6-7 1-5z" fill="#E8DBDD"/>
<path transform="translate(1069,714)" d="m0 0h2l-1 6-6 13-3 7-3-1-9-21v-3h3l7 16h2l7-16z" fill="#F6C764"/>
<path transform="translate(812,682)" d="m0 0 1 3 4 1 2 1-1 5-5 4-4-1-6-8v-2l-15-1v-1z" fill="#E8DBDD"/>
<path transform="translate(1025,467)" d="m0 0 26 1h6v3l-13 3h-15l-3-5z" fill="#FCF0F0"/>
<path transform="translate(1195,365)" d="m0 0h2v11l-2 1v-2l-5 3-5 5-6 4-1-4 3-6 11-9z" fill="#DCB469"/>
<path transform="translate(1066,436)" d="m0 0 4 2 7 8-1 3-4 2-4-1-6-7-2-4z" fill="#DCB569"/>
<path transform="translate(786,669)" d="m0 0 4 2 5 5v2h2l2 5-11 1h-10l-1-3h2v2l6-1v-9z" fill="#F6C764"/>
<path transform="translate(1041,490)" d="m0 0h3v2l5 2 1 3-2 3-9 1-6-7v-3z" fill="#E8DBDD"/>
<path transform="translate(1091,419)" d="m0 0h2l6 7 1 4 2 1-4 4h-2l-1-2-6-2-2-3 1-5z" fill="#DCB469"/>
<path transform="translate(1299,715)" d="m0 0h4l1 21 7 1-1 3h-9l-2-3z" fill="#F6C764"/>
<path transform="translate(635,777)" d="m0 0 2 2-5 8-1 3v13l5 9 7 5 7 2h8v2h-12l-10-6-6-7-2-5v-13l3-8z" fill="#E8DBDD"/>
<path transform="translate(1198,357)" d="m0 0 1 4 4-4h5l2 3-1 4-7 6h-3l-1-2z" fill="#E8DBDD"/>
<path transform="translate(1065,453)" d="m0 0h5l5 5-1 3-21-2v-2z" fill="#FCF0F0"/>
<path transform="translate(1266,715)" d="m0 0h3l1 21 7 1v3h-9l-2-1z" fill="#F6C764"/>
<path transform="translate(1139,717)" d="m0 0h6l3 2v6l-3 2h-7l-1-1v-7z" fill="#FAEEEF"/>
<path transform="translate(1241,714)" d="m0 0 3 1v25l-4-1v-18z" fill="#F6C764"/>
<path transform="translate(847,717)" d="m0 0h7l3 4-2 5-2 1h-6l-1-1v-8z" fill="#FCF0F0"/>
<path transform="translate(1013,717)" d="m0 0h7l3 3-1 5-2 2h-7l-1-6z" fill="#FBEFEF"/>
<path transform="translate(654,717)" d="m0 0h7l2 3v5l-2 2h-7l-1-1v-8z" fill="#F9EDEE"/>
<path transform="translate(648,781)" d="m0 0 2 1-7 6-2 5v7l6 7 2 1h10l6-4-2 4-6 3h-7l-9-6-3-6 1-9 4-6z" fill="#E8DBDD"/>
<path transform="translate(735,717)" d="m0 0h7l2 2v6l-3 2h-6l-1-7z" fill="#F9EDED"/>
<path transform="translate(647,771)" d="m0 0h12l7 3 1 2-8-2h-12l-7 3-4 1v-2l7-4z" fill="#E9D8CF"/>
<path transform="translate(1076,463)" d="m0 0h9l1 2-2 4-7 1-4-2z" fill="#DBB469"/>
<path transform="translate(1387,207)" d="m0 0 1 2-7 8-9 8-11 5-5 1v-2l11-4 11-8z" fill="#DFB769"/>
<path transform="translate(780,720)" d="m0 0h2l3 8v3h-8l1-5z" fill="#F9ECED"/>
<path transform="translate(1343,720)" d="m0 0 2 2 2 9h-8l1-5z" fill="#F9ECED"/>
<path transform="translate(695,720)" d="m0 0 2 1 2 9-1 1h-6l1-7z" fill="#F6EAEB"/>
<path transform="translate(1098,721)" d="m0 0h2l2 5v5h-7l1-6z" fill="#F9EDED"/>
<path transform="translate(705,721)" d="m0 0 4 1-2 1v2l4-1v3l-7 1-2 1-1-6z" fill="#E8DBDD"/>
<path transform="translate(1195,623)" d="m0 0 5 1 1 6-5 2-1-1z" fill="#F9ECED"/>
<path transform="translate(1349,180)" d="m0 0m-1 1v3l-8 7-6 8-1-2 8-11z" fill="#E9BD66"/>
<path transform="translate(1130,420)" d="m0 0 1 3-5 6-8 6 2-4z" fill="#EEC165"/>
</svg>
